PathFileType	4	(X/Y/Z)	TVC_9_Cal_03_0_static_RCNL2025.trc
DataRate	CameraRate	NumFrames	NumMarkers	Units	OrigDataRate	OrigDataStartFrame	OrigNumFrames
100	100	7	27	mm	100	66	260
Frame#	Time	R_Shoulder			L_Shoulder			C7			J_Notch			R_Elbow			L_Elbow			R_Wrist			L_Wrist			R_Asis			L_Asis			R_Psis			L_Psis			Sacral			Thoracic			Sternum			R_Thigh_Lateral			R_Knee_Lateral			R_Shank_Lateral			R_Ankle_Lateral			R_Heel			R_Toe			L_Thigh_Lateral			L_Knee_Lateral			L_Shank_Lateral			L_Ankle_Lateral			L_Heel			L_Toe		
		X1	Y1	Z1	X2	Y2	Z2	X3	Y3	Z3	X4	Y4	Z4	X5	Y5	Z5	X6	Y6	Z6	X7	Y7	Z7	X8	Y8	Z8	X9	Y9	Z9	X10	Y10	Z10	X11	Y11	Z11	X12	Y12	Z12	X13	Y13	Z13	X14	Y14	Z14	X15	Y15	Z15	X16	Y16	Z16	X17	Y17	Z17	X18	Y18	Z18	X19	Y19	Z19	X20	Y20	Z20	X21	Y21	Z21	X22	Y22	Z22	X23	Y23	Z23	X24	Y24	Z24	X25	Y25	Z25	X26	Y26	Z26	X27	Y27	Z27
66	0.65000000	-188.234512	1389.154053	-116.335991	-305.988159	1364.357300	-490.866333	-308.841461	1446.160767	-299.042999	-158.224487	1341.138306	-318.541779	-203.582932	1109.700806	61.634403	-303.422272	1041.161621	-596.100464	-143.002106	870.827423	46.780326	-233.019005	806.551239	-567.404724	-168.092712	938.147217	-128.783676	-234.261856	935.777710	-433.384033	-383.876831	953.208435	-192.791260	-402.058228	950.565796	-289.628601	-392.967529	951.887115	-241.209930	-398.712433	1168.377075	-252.894348	-107.548393	1149.327393	-317.955414	-250.735153	539.093323	-53.083759	-291.076965	443.216217	-114.191505	-269.189117	302.229584	-69.656799	-301.196625	74.234505	-140.139008	-355.224976	60.454536	-201.608749	-172.061798	49.011036	-179.415894	-236.454529	569.617554	-464.365387	-253.653931	420.066620	-411.684601	-274.060669	304.164093	-455.670502	-308.891418	80.092018	-379.083923	-354.093018	53.580170	-315.556366	-168.094437	44.479267	-372.319427
67	0.66000000	-188.368286	1389.272461	-116.206345	-306.007996	1364.362427	-490.842590	-308.862213	1446.118774	-299.039673	-158.216599	1341.172729	-318.494843	-203.576797	1109.833374	61.665619	-303.333282	1041.218750	-596.191833	-142.958221	870.994507	47.044538	-233.117996	806.610046	-567.523621	-168.096512	938.162964	-128.721848	-234.322357	935.744751	-433.300232	-383.845306	953.134705	-192.686050	-402.159241	950.601501	-289.553223	-393.002274	951.868103	-241.119637	-398.706573	1168.357056	-252.889038	-107.428467	1149.396240	-317.910583	-250.499512	539.273743	-53.229084	-290.986145	443.193634	-114.161591	-269.114014	302.128754	-69.640930	-301.221893	74.166588	-140.105774	-355.217468	60.455997	-201.628387	-172.044098	48.964790	-179.450684	-236.451096	569.677979	-464.373993	-253.688522	420.047424	-411.618622	-274.043793	304.262787	-455.668427	-308.895630	79.962524	-379.087799	-354.048035	53.584095	-315.577667	-168.099182	44.450886	-372.316589
68	0.67000000	-188.389175	1389.377319	-116.138702	-305.991119	1364.438599	-490.759247	-308.890686	1446.128174	-298.881134	-158.158310	1341.197876	-318.367157	-203.655228	1110.023682	61.772144	-303.401520	1041.288330	-596.274841	-142.952637	871.063751	47.389424	-233.172890	806.769867	-567.632446	-168.860367	937.550049	-128.838913	-234.266266	935.705200	-433.200897	-383.874756	953.051636	-192.615829	-402.202637	950.559204	-289.498657	-393.038696	951.805420	-241.057243	-398.708160	1168.356567	-252.890396	-107.278679	1149.459229	-317.779724	-250.356247	539.107361	-53.287868	-291.240295	443.434601	-113.869469	-269.134430	302.103424	-69.602623	-301.164459	74.203224	-140.138321	-355.220306	60.455082	-201.632492	-171.931503	48.942596	-179.389099	-236.444901	569.718262	-464.357697	-253.717194	420.064972	-411.608063	-274.047546	304.099365	-455.652344	-308.901489	79.970230	-379.074341	-354.115143	53.574596	-315.542908	-168.099487	44.450722	-372.315582
69	0.68000000	-188.514862	1389.508789	-116.076141	-306.040955	1364.471191	-490.686340	-308.913513	1446.138184	-298.895691	-158.148026	1341.210449	-318.356903	-203.625748	1110.137329	61.916725	-303.333618	1041.492310	-596.376953	-142.872345	871.311035	47.594648	-233.263100	806.844849	-567.707428	-168.153336	938.000427	-128.659058	-234.245926	935.719971	-433.227478	-383.935913	953.187073	-192.567551	-402.202332	950.535828	-289.497345	-393.069122	951.861450	-241.032448	-398.752991	1168.417847	-252.834976	-107.219788	1149.464722	-317.665161	-250.192444	539.001648	-53.294659	-291.174500	443.389862	-113.853912	-269.173248	302.100250	-69.607635	-301.198395	74.143951	-140.099533	-355.147949	60.368717	-201.611420	-171.936661	48.987160	-179.365448	-236.403351	569.739990	-464.390015	-253.667953	420.052643	-411.623993	-274.141388	304.155762	-455.744843	-308.917389	79.980385	-379.062958	-354.080292	53.567703	-315.539276	-168.116028	44.438709	-372.294312
70	0.69000000	-188.561264	1389.653442	-116.020309	-306.057068	1364.504761	-490.610016	-308.865265	1446.095337	-298.888092	-158.152740	1341.187134	-318.343475	-203.662369	1110.343506	62.120289	-303.358826	1041.516479	-596.548096	-142.798416	871.450531	47.801299	-233.305275	806.930603	-567.872986	-167.765961	938.157654	-128.738770	-234.404984	935.655518	-433.214172	-383.916901	953.173218	-192.498077	-402.215668	950.468262	-289.362823	-393.066284	951.820740	-240.930450	-398.834015	1168.426270	-252.767975	-107.079643	1149.552856	-317.593018	-250.216324	538.900574	-53.073452	-291.167236	443.402863	-113.835075	-269.065186	302.184845	-69.665314	-301.099884	74.200348	-140.066666	-355.187042	60.386597	-201.651260	-171.944565	48.991680	-179.363495	-236.317719	569.843750	-464.456665	-253.620819	420.027985	-411.718445	-274.046265	304.188599	-455.854584	-308.905609	79.970703	-379.070068	-354.099274	53.553558	-315.553131	-168.110886	44.363560	-372.312714
71	0.70000000	-188.587952	1389.794067	-116.017776	-306.010956	1364.528442	-490.602661	-308.857361	1446.120361	-298.883057	-158.082504	1341.172241	-318.284698	-203.604950	1110.498657	62.241989	-303.321655	1041.626465	-596.673767	-142.692032	871.560333	47.922493	-233.420708	806.969635	-567.979462	-167.594162	938.098999	-128.638229	-234.458725	935.670288	-433.194641	-383.884888	953.092651	-192.476547	-402.238617	950.478394	-289.348297	-393.061752	951.785522	-240.912422	-398.760498	1168.311279	-252.737808	-106.996483	1149.625122	-317.419189	-250.438278	539.082520	-52.885845	-290.473267	442.952057	-113.792000	-269.128082	302.148376	-69.608902	-301.114655	74.258484	-140.082245	-355.110107	60.399509	-201.616302	-171.928268	48.945084	-179.398483	-236.167480	569.817139	-464.449585	-253.552536	419.998474	-411.697021	-274.066437	304.158051	-455.860504	-308.967682	79.926529	-378.849274	-354.059235	53.595634	-315.566742	-168.096970	44.346962	-372.336029
72	0.71000000	-188.683990	1389.858398	-115.918259	-305.998169	1364.531128	-490.580811	-308.921753	1446.101196	-298.841583	-158.063477	1341.144287	-318.266632	-203.564880	1110.591187	62.435024	-303.309235	1041.755737	-596.815918	-142.648781	871.758636	48.077952	-233.559189	807.016174	-568.054077	-167.602890	938.096252	-128.673401	-234.460312	935.693542	-433.173584	-383.910645	953.120239	-192.479996	-402.256378	950.418823	-289.191895	-393.083511	951.769531	-240.835945	-398.772369	1168.352051	-252.690262	-107.064430	1149.622437	-317.305664	-250.406891	539.037048	-52.894131	-290.477692	442.948334	-113.832581	-269.205048	302.112457	-69.577599	-301.151184	74.180779	-140.059052	-355.189270	60.478298	-201.549393	-171.925064	48.941727	-179.388824	-236.011551	569.844604	-464.476013	-253.470016	420.016663	-411.744995	-274.082764	304.100861	-455.883484	-308.939575	79.902863	-378.760132	-354.087067	53.726105	-315.636566	-168.074783	44.323750	-372.353363
